<svg xmlns="http://www.w3.org/2000/svg" width="28" height="28" fill="none"><g clip-path="url(#a)"><path fill="#402B22" d="M14 0c-3.8 0-4.277.018-5.77.084-1.493.07-2.51.304-3.4.651A6.825 6.825 0 0 0 2.35 2.35 6.825 6.825 0 0 0 .735 4.83C.389 5.719.152 6.737.084 8.225.017 9.721 0 10.197 0 14.002c0 3.8.018 4.277.084 5.77.07 1.49.304 2.507.651 3.398.359.92.836 1.701 1.615 2.48a6.832 6.832 0 0 0 2.478 1.615c.893.346 1.908.583 3.399.651C9.72 27.983 10.197 28 14 28s4.277-.017 5.771-.084c1.49-.07 2.51-.305 3.4-.651a6.824 6.824 0 0 0 2.479-1.615 6.875 6.875 0 0 0 1.615-2.48c.345-.89.581-1.908.651-3.399C27.983 18.28 28 17.803 28 14s-.017-4.279-.084-5.773c-.07-1.49-.306-2.508-.651-3.397a6.824 6.824 0 0 0-1.615-2.48A6.824 6.824 0 0 0 23.17.735c-.893-.346-1.911-.583-3.4-.651C18.275.017 17.8 0 13.996 0H14Zm-1.255 2.523h1.257c3.738 0 4.18.013 5.656.081 1.365.061 2.107.29 2.6.481.653.254 1.12.558 1.61 1.048s.793.956 1.047 1.61c.192.492.42 1.234.481 2.6.068 1.475.082 1.917.082 5.653 0 3.737-.014 4.181-.082 5.656-.061 1.365-.29 2.106-.481 2.6a4.376 4.376 0 0 1-1.049 1.608c-.49.49-.955.792-1.61 1.046-.49.193-1.232.42-2.598.483-1.476.067-1.918.082-5.656.082-3.738 0-4.183-.015-5.658-.082-1.365-.063-2.105-.29-2.599-.483a4.374 4.374 0 0 1-1.61-1.046 4.375 4.375 0 0 1-1.05-1.61c-.19-.492-.42-1.234-.481-2.6-.067-1.474-.08-1.917-.08-5.657s.014-4.179.08-5.654c.063-1.365.29-2.107.483-2.6a4.344 4.344 0 0 1 1.048-1.61c.49-.49.956-.793 1.61-1.047.494-.193 1.234-.42 2.599-.483 1.292-.06 1.792-.077 4.401-.079v.003Zm8.73 2.325a1.68 1.68 0 1 0 0 3.36 1.68 1.68 0 0 0 0-3.36ZM14.001 6.81a7.19 7.19 0 1 0-.225 14.38 7.19 7.19 0 0 0 .225-14.38Zm0 2.522a4.667 4.667 0 1 1 0 9.333 4.667 4.667 0 0 1 0-9.333Z"/></g><defs><clipPath id="a"><path fill="#fff" d="M0 0h28v28H0z"/></clipPath></defs></svg>