<svg xmlns="http://www.w3.org/2000/svg" width="28" height="28" fill="none"><g clip-path="url(#a)"><path fill="#402B22" d="M28 14.085C28 6.305 21.732-.002 14-.002 6.265 0-.003 6.305-.003 14.088c0 7.029 5.12 12.857 11.812 13.914v-9.844H8.257v-4.07h3.556V10.98c0-3.53 2.09-5.48 5.288-5.48 1.533 0 3.134.276 3.134.276v3.465H18.47c-1.738 0-2.28 1.086-2.28 2.201v2.643h3.88l-.619 4.07h-3.264V28C22.88 26.943 28 21.115 28 14.085Z"/></g><defs><clipPath id="a"><path fill="#fff" d="M0 0h28v28H0z"/></clipPath></defs></svg>