<svg width="32" height="32" viewBox="0 0 32 32" fill="none" xmlns="http://www.w3.org/2000/svg">
<mask id="mask0_77_580" style="mask-type:alpha" maskUnits="userSpaceOnUse" x="0" y="0" width="32" height="32">
<rect width="32" height="32" fill="#0E2B45"/>
</mask>
<g mask="url(#mask0_77_580)">
<path d="M20.3998 22.6L22.2665 20.7333L17.3332 15.8V9.66667H14.6665V16.8667L20.3998 22.6ZM15.9998 29.6667C14.1554 29.6667 12.4221 29.3167 10.7998 28.6167C9.17761 27.9167 7.7665 26.9667 6.5665 25.7667C5.3665 24.5667 4.4165 23.1556 3.7165 21.5333C3.0165 19.9111 2.6665 18.1778 2.6665 16.3333C2.6665 14.4889 3.0165 12.7556 3.7165 11.1333C4.4165 9.51111 5.3665 8.1 6.5665 6.9C7.7665 5.7 9.17761 4.75 10.7998 4.05C12.4221 3.35 14.1554 3 15.9998 3C17.8443 3 19.5776 3.35 21.1998 4.05C22.8221 4.75 24.2332 5.7 25.4332 6.9C26.6332 8.1 27.5832 9.51111 28.2832 11.1333C28.9832 12.7556 29.3332 14.4889 29.3332 16.3333C29.3332 18.1778 28.9832 19.9111 28.2832 21.5333C27.5832 23.1556 26.6332 24.5667 25.4332 25.7667C24.2332 26.9667 22.8221 27.9167 21.1998 28.6167C19.5776 29.3167 17.8443 29.6667 15.9998 29.6667ZM15.9998 27C18.9554 27 21.4721 25.9611 23.5498 23.8833C25.6276 21.8056 26.6665 19.2889 26.6665 16.3333C26.6665 13.3778 25.6276 10.8611 23.5498 8.78333C21.4721 6.70556 18.9554 5.66667 15.9998 5.66667C13.0443 5.66667 10.5276 6.70556 8.44984 8.78333C6.37206 10.8611 5.33317 13.3778 5.33317 16.3333C5.33317 19.2889 6.37206 21.8056 8.44984 23.8833C10.5276 25.9611 13.0443 27 15.9998 27Z" fill="#0E2B45"/>
</g>
</svg>
