<svg width="32" height="32" viewBox="0 0 32 32" fill="none" xmlns="http://www.w3.org/2000/svg">
<mask id="mask0_77_574" style="mask-type:alpha" maskUnits="userSpaceOnUse" x="0" y="0" width="32" height="32">
<rect width="32" height="32" fill="#0E2B45"/>
</mask>
<g mask="url(#mask0_77_574)">
<path d="M15.9998 29.6667C13.6443 29.6667 11.7221 29.2944 10.2332 28.55C8.74428 27.8056 7.99984 26.8444 7.99984 25.6667C7.99984 25.1333 8.16095 24.6389 8.48317 24.1833C8.80539 23.7278 9.25539 23.3333 9.83317 23L11.9332 24.9667C11.7332 25.0556 11.5165 25.1556 11.2832 25.2667C11.0498 25.3778 10.8665 25.5111 10.7332 25.6667C11.0221 26.0222 11.6887 26.3333 12.7332 26.6C13.7776 26.8667 14.8665 27 15.9998 27C17.1332 27 18.2276 26.8667 19.2832 26.6C20.3387 26.3333 21.0109 26.0222 21.2998 25.6667C21.1443 25.4889 20.9443 25.3444 20.6998 25.2333C20.4554 25.1222 20.2221 25.0222 19.9998 24.9333L22.0665 22.9333C22.6887 23.2889 23.1665 23.6944 23.4998 24.15C23.8332 24.6056 23.9998 25.1111 23.9998 25.6667C23.9998 26.8444 23.2554 27.8056 21.7665 28.55C20.2776 29.2944 18.3554 29.6667 15.9998 29.6667ZM16.0332 22.3333C18.2332 20.7111 19.8887 19.0833 20.9998 17.45C22.1109 15.8167 22.6665 14.1778 22.6665 12.5333C22.6665 10.2667 21.9443 8.55556 20.4998 7.4C19.0554 6.24444 17.5554 5.66667 15.9998 5.66667C14.4443 5.66667 12.9443 6.24444 11.4998 7.4C10.0554 8.55556 9.33317 10.2667 9.33317 12.5333C9.33317 14.0222 9.87761 15.5722 10.9665 17.1833C12.0554 18.7944 13.7443 20.5111 16.0332 22.3333ZM15.9998 25.6667C12.8665 23.3556 10.5276 21.1111 8.98317 18.9333C7.43873 16.7556 6.6665 14.6222 6.6665 12.5333C6.6665 10.9556 6.94984 9.57222 7.5165 8.38333C8.08317 7.19444 8.81095 6.2 9.69984 5.4C10.5887 4.6 11.5887 4 12.6998 3.6C13.8109 3.2 14.9109 3 15.9998 3C17.0887 3 18.1887 3.2 19.2998 3.6C20.4109 4 21.4109 4.6 22.2998 5.4C23.1887 6.2 23.9165 7.19444 24.4832 8.38333C25.0498 9.57222 25.3332 10.9556 25.3332 12.5333C25.3332 14.6222 24.5609 16.7556 23.0165 18.9333C21.4721 21.1111 19.1332 23.3556 15.9998 25.6667ZM15.9998 15C16.7332 15 17.3609 14.7389 17.8832 14.2167C18.4054 13.6944 18.6665 13.0667 18.6665 12.3333C18.6665 11.6 18.4054 10.9722 17.8832 10.45C17.3609 9.92778 16.7332 9.66667 15.9998 9.66667C15.2665 9.66667 14.6387 9.92778 14.1165 10.45C13.5943 10.9722 13.3332 11.6 13.3332 12.3333C13.3332 13.0667 13.5943 13.6944 14.1165 14.2167C14.6387 14.7389 15.2665 15 15.9998 15Z" fill="#0E2B45"/>
</g>
</svg>
