<svg xmlns="http://www.w3.org/2000/svg" width="168" height="40" fill="none"><path fill="#2B4963" d="M51.04 29.444h6.012c.528 0 .924.144 1.188.432.264.288.396.672.396 1.152v.576c0 .264-.12.396-.36.396h-9.684c-.192 0-.288-.108-.288-.324V12.308c0-.216.096-.324.288-.324h.252c1.464 0 2.196.852 2.196 2.556v14.904Zm13.15-13.248 2.628-2.412c.168-.12.312-.204.432-.252a.824.824 0 0 1 .432-.108h2.376c.12 0 .192.048.216.144.024.072 0 .132-.072.18l-2.916 2.376a1.49 1.49 0 0 1-1.044.396h-1.908a.242.242 0 0 1-.216-.108c-.024-.096 0-.168.072-.216Zm2.916 16.128c-2.04 0-3.672-.624-4.896-1.872-1.2-1.272-1.8-2.952-1.8-5.04s.6-3.768 1.8-5.04c1.224-1.296 2.844-1.944 4.86-1.944 2.04 0 3.672.648 4.896 1.944 1.224 1.272 1.836 2.94 1.836 5.004 0 2.088-.612 3.768-1.836 5.04-1.2 1.272-2.82 1.908-4.86 1.908Zm-.036-2.556c1.128 0 2.064-.36 2.808-1.08.768-.72 1.152-1.812 1.152-3.276 0-1.416-.384-2.508-1.152-3.276-.744-.768-1.68-1.152-2.808-1.152-1.152 0-2.088.384-2.808 1.152-.72.768-1.08 1.86-1.08 3.276 0 1.416.36 2.496 1.08 3.24.72.744 1.656 1.116 2.808 1.116Zm11.246-8.64h-2.448c-.192 0-.288-.096-.288-.288v-1.8c0-.192.096-.288.288-.288h2.448v-4.464c0-.216.084-.324.252-.324h.18c.696 0 1.236.216 1.62.648.408.408.612 1.032.612 1.872v2.268h2.772c.168 0 .252.096.252.288v1.8c0 .192-.084.288-.252.288H80.98v10.548c0 .216-.096.324-.288.324h-2.124c-.168 0-.252-.108-.252-.324V21.128ZM92.62 32.36c-1.968 0-3.444-.576-4.428-1.728-.984-1.176-1.476-2.784-1.476-4.824v-6.732c0-.216.096-.324.288-.324h.18c1.464 0 2.196.828 2.196 2.484v4.86c0 1.272.288 2.22.864 2.844.6.624 1.392.936 2.376.936s1.764-.276 2.34-.828c.6-.576.9-1.524.9-2.844v-7.128c0-.216.096-.324.288-.324h.18c1.488 0 2.232.828 2.232 2.484v4.752c0 1.968-.504 3.528-1.512 4.68-.984 1.128-2.46 1.692-4.428 1.692Zm16.984-10.728a7.823 7.823 0 0 0-1.656-.684 6.552 6.552 0 0 0-1.728-.216c-.624 0-1.14.12-1.548.36-.384.24-.576.6-.576 1.08 0 .456.228.828.684 1.116.456.288 1.02.552 1.692.792.672.24 1.344.516 2.016.828.696.312 1.272.72 1.728 1.224.456.48.684 1.14.684 1.98 0 1.272-.456 2.304-1.368 3.096-.888.792-2.112 1.188-3.672 1.188-.984 0-1.836-.168-2.556-.504-.72-.36-1.272-.804-1.656-1.332-.384-.528-.576-1.056-.576-1.584 0-.408.132-.612.396-.612.096 0 .204.06.324.18.456.408.984.768 1.584 1.08.6.312 1.344.468 2.232.468.864 0 1.512-.156 1.944-.468.432-.312.648-.732.648-1.26 0-.48-.228-.864-.684-1.152-.456-.288-1.032-.54-1.728-.756a28.246 28.246 0 0 1-2.052-.828 5.202 5.202 0 0 1-1.692-1.224c-.456-.504-.684-1.176-.684-2.016 0-1.272.48-2.244 1.44-2.916.96-.696 2.112-1.044 3.456-1.044 1.176 0 2.196.216 3.06.648.48.192.792.444.936.756.144.288.156.684.036 1.188l-.108.468c-.024.168-.108.252-.252.252a.592.592 0 0 1-.18-.036l-.144-.072Zm9.397 5.94c0-.48.156-.72.468-.72.168 0 .324.084.468.252a8.59 8.59 0 0 0 2.448 2.052c.936.48 2.064.72 3.384.72 1.488 0 2.64-.288 3.456-.864.816-.6 1.224-1.404 1.224-2.412 0-.72-.264-1.296-.792-1.728-.528-.456-1.2-.84-2.016-1.152a64.38 64.38 0 0 0-2.628-.936 17.293 17.293 0 0 1-2.628-1.116 6.232 6.232 0 0 1-2.016-1.764c-.528-.72-.792-1.656-.792-2.808 0-1.128.288-2.1.864-2.916.6-.816 1.404-1.44 2.412-1.872 1.008-.456 2.16-.684 3.456-.684.984 0 1.872.084 2.664.252.816.168 1.56.408 2.232.72 1.2.432 1.656 1.152 1.368 2.16l-.18.72c-.048.24-.144.36-.288.36-.096 0-.276-.072-.54-.216a9.344 9.344 0 0 0-2.484-1.116 9.045 9.045 0 0 0-2.808-.432c-1.128 0-2.064.252-2.808.756-.744.504-1.116 1.212-1.116 2.124 0 .744.264 1.344.792 1.8.528.456 1.2.84 2.016 1.152.816.288 1.692.588 2.628.9.936.312 1.812.684 2.628 1.116.816.408 1.488.96 2.016 1.656s.792 1.596.792 2.7c0 1.824-.636 3.3-1.908 4.428-1.248 1.128-3 1.692-5.256 1.692-1.632 0-2.976-.264-4.032-.792-1.032-.528-1.8-1.164-2.304-1.908-.48-.768-.72-1.476-.72-2.124Zm19.812 2.664v7.2c0 .216-.084.324-.252.324h-2.124c-.192 0-.288-.108-.288-.324V19.04c0-.192.096-.288.288-.288h.18c.648 0 1.14.192 1.476.576.336.36.552.792.648 1.296.408-.624.984-1.14 1.728-1.548.744-.432 1.632-.648 2.664-.648 1.992 0 3.54.66 4.644 1.98 1.104 1.296 1.656 2.952 1.656 4.968 0 1.272-.24 2.436-.72 3.492s-1.176 1.896-2.088 2.52c-.912.624-2.016.936-3.312.936-.936 0-1.8-.168-2.592-.504a4.236 4.236 0 0 1-1.908-1.584Zm3.996-.432c.576 0 1.164-.144 1.764-.432.6-.288 1.092-.756 1.476-1.404.408-.648.612-1.512.612-2.592 0-1.488-.396-2.592-1.188-3.312a3.865 3.865 0 0 0-2.736-1.08c-.552 0-1.14.12-1.764.36-.6.24-1.116.684-1.548 1.332-.408.624-.612 1.524-.612 2.7 0 1.152.216 2.052.648 2.7.432.648.96 1.104 1.584 1.368.624.24 1.212.36 1.764.36Zm19.872.324c-.528.744-1.164 1.296-1.908 1.656-.744.36-1.572.54-2.484.54-1.32 0-2.448-.312-3.384-.936-.912-.624-1.608-1.464-2.088-2.52s-.72-2.22-.72-3.492c0-1.344.264-2.532.792-3.564.528-1.056 1.26-1.884 2.196-2.484.96-.6 2.064-.9 3.312-.9 1.008 0 1.884.192 2.628.576.768.384 1.368.888 1.8 1.512.12-.624.36-1.068.72-1.332.36-.288.816-.432 1.368-.432h.18c.168 0 .252.108.252.324v12.6c0 .216-.084.324-.252.324h-2.124c-.192 0-.288-.108-.288-.324v-1.548Zm-3.996-.324c.6 0 1.2-.12 1.8-.36.624-.264 1.14-.72 1.548-1.368.432-.648.648-1.548.648-2.7 0-1.176-.216-2.076-.648-2.7-.408-.648-.912-1.092-1.512-1.332s-1.176-.36-1.728-.36c-1.032 0-1.944.36-2.736 1.08-.792.72-1.188 1.824-1.188 3.312 0 1.08.192 1.944.576 2.592.408.648.9 1.116 1.476 1.404.6.288 1.188.432 1.764.432Z"/><mask id="a" width="40" height="40" x="0" y="0" maskUnits="userSpaceOnUse" style="mask-type:alpha"><path fill="#4F7D7B" d="M0 0h40v40H0z"/></mask><g mask="url(#a)"><path fill="#2B4963" d="M20 37.333c-2.028-.25-4.042-.798-6.042-1.645-2-.848-3.784-2.063-5.354-3.646-1.57-1.584-2.84-3.584-3.812-6-.973-2.417-1.459-5.32-1.459-8.709v-1.666H5c1.417 0 2.875.18 4.375.541 1.5.361 2.903.903 4.208 1.625.334-2.389 1.09-4.84 2.271-7.354C17.034 7.965 18.417 5.806 20 4c1.583 1.806 2.965 3.965 4.146 6.48 1.18 2.513 1.937 4.964 2.27 7.353a16.745 16.745 0 0 1 4.209-1.625c1.5-.36 2.958-.541 4.375-.541h1.667v1.666c0 3.39-.486 6.292-1.459 8.709-.972 2.416-2.243 4.416-3.812 6-1.57 1.583-3.347 2.798-5.334 3.645A22.234 22.234 0 0 1 20 37.334Zm-.083-3.416c-.306-4.611-1.674-8.098-4.105-10.459-2.43-2.36-5.45-3.82-9.062-4.375.306 4.75 1.715 8.292 4.23 10.625 2.513 2.334 5.492 3.736 8.937 4.209ZM20 23.333c.417-.61.924-1.243 1.52-1.895a19.408 19.408 0 0 1 1.73-1.688c-.056-1.583-.368-3.236-.938-4.958A25.658 25.658 0 0 0 20 9.75a25.653 25.653 0 0 0-2.313 5.042c-.569 1.722-.881 3.375-.937 4.958a21.497 21.497 0 0 1 1.75 1.688 13.12 13.12 0 0 1 1.5 1.895Zm3.25 9.834c1.028-.334 2.097-.82 3.208-1.459 1.111-.639 2.146-1.507 3.105-2.604.958-1.097 1.777-2.465 2.458-4.104.68-1.639 1.09-3.611 1.229-5.917-2.611.39-4.903 1.257-6.875 2.605-1.972 1.347-3.486 3.062-4.542 5.145.334.89.618 1.861.855 2.917.236 1.056.423 2.194.562 3.417Z"/></g></svg>