<svg xmlns="http://www.w3.org/2000/svg" width="48" height="48" fill="none"><mask id="a" width="48" height="48" x="0" y="0" maskUnits="userSpaceOnUse" style="mask-type:alpha"><path fill="#4F7D7B" d="M0 0h48v48H0z"/></mask><g mask="url(#a)"><path fill="#2B4963" d="M24 44.8c-2.433-.3-4.85-.958-7.25-1.975-2.4-1.017-4.542-2.475-6.425-4.375s-3.408-4.3-4.575-7.2C4.583 28.35 4 24.867 4 20.8v-2h2c1.7 0 3.45.217 5.25.65 1.8.433 3.483 1.083 5.05 1.95.4-2.867 1.308-5.808 2.725-8.825C20.442 9.558 22.1 6.967 24 4.8c1.9 2.167 3.558 4.758 4.975 7.775 1.417 3.017 2.325 5.958 2.725 8.825a20.093 20.093 0 0 1 5.05-1.95c1.8-.433 3.55-.65 5.25-.65h2v2c0 4.067-.583 7.55-1.75 10.45-1.167 2.9-2.692 5.3-4.575 7.2-1.883 1.9-4.017 3.358-6.4 4.375A26.678 26.678 0 0 1 24 44.8Zm-.1-4.1c-.367-5.533-2.008-9.717-4.925-12.55S12.433 23.567 8.1 22.9c.367 5.7 2.058 9.95 5.075 12.75 3.017 2.8 6.592 4.483 10.725 5.05ZM24 28c.5-.733 1.108-1.492 1.825-2.275A23.3 23.3 0 0 1 27.9 23.7c-.067-1.9-.442-3.883-1.125-5.95A30.783 30.783 0 0 0 24 11.7a30.783 30.783 0 0 0-2.775 6.05c-.683 2.067-1.058 4.05-1.125 5.95a25.816 25.816 0 0 1 2.1 2.025c.733.783 1.333 1.542 1.8 2.275Zm3.9 11.8c1.233-.4 2.517-.983 3.85-1.75 1.333-.767 2.575-1.808 3.725-3.125s2.133-2.958 2.95-4.925c.817-1.967 1.308-4.333 1.475-7.1-3.133.467-5.883 1.508-8.25 3.125S27.467 29.7 26.2 32.2c.4 1.067.742 2.233 1.025 3.5.283 1.267.508 2.633.675 4.1Z"/></g></svg>